<svg width="24" height="24" viewBox="0 0 24 24" fill="none" xmlns="http://www.w3.org/2000/svg">
<rect width="24" height="24" rx="4" fill="#F8F8F8"/>
<path d="M11.2526 10.3633L10.5353 12.516C10.4935 12.6481 10.4887 12.789 10.5215 12.9236C10.5544 13.0581 10.6235 13.181 10.7215 13.2789C10.8195 13.3768 10.9424 13.4459 11.077 13.4786C11.2115 13.5113 11.3525 13.5064 11.4844 13.4645L13.637 12.7472C13.7471 12.7102 13.8473 12.6483 13.9296 12.5663L18.9835 7.51198C19.3142 7.1808 19.5 6.73186 19.5 6.26378C19.5 5.7957 19.3142 5.34676 18.9835 5.01558C18.6522 4.6854 18.2035 4.5 17.7358 4.5C17.268 4.5 16.8194 4.6854 16.488 5.01558L11.4342 10.0707C11.3518 10.1528 11.2896 10.253 11.2526 10.3633Z" fill="#1080D6"/>
<path d="M18.75 9.75C18.5511 9.75 18.3603 9.82902 18.2197 9.96967C18.079 10.1103 18 10.3011 18 10.5V15.75C18 16.3467 17.7629 16.919 17.341 17.341C16.919 17.7629 16.3467 18 15.75 18H8.25C7.65326 18 7.08097 17.7629 6.65901 17.341C6.23705 16.919 6 16.3467 6 15.75V8.25C6 7.65326 6.23705 7.08097 6.65901 6.65901C7.08097 6.23705 7.65326 6 8.25 6H13.5C13.6989 6 13.8897 5.92098 14.0303 5.78033C14.171 5.63968 14.25 5.44891 14.25 5.25C14.25 5.05109 14.171 4.86032 14.0303 4.71967C13.8897 4.57902 13.6989 4.5 13.5 4.5H8.25C7.2558 4.50119 6.30267 4.89666 5.59966 5.59966C4.89666 6.30267 4.50119 7.2558 4.5 8.25V15.75C4.50119 16.7442 4.89666 17.6973 5.59966 18.4003C6.30267 19.1033 7.2558 19.4988 8.25 19.5H15.75C16.7442 19.4988 17.6973 19.1033 18.4003 18.4003C19.1033 17.6973 19.4988 16.7442 19.5 15.75V10.5C19.5 10.3011 19.421 10.1103 19.2803 9.96967C19.1397 9.82902 18.9489 9.75 18.75 9.75Z" fill="#1080D6"/>
</svg>
