<svg width="24" height="24" viewBox="0 0 24 24" fill="none" xmlns="http://www.w3.org/2000/svg">
<rect width="24" height="24" rx="4" fill="#F8F8F8"/>
<path d="M11.5 18C5.93874 18 3.18155 12.5244 3.06694 12.2915C2.97769 12.1101 2.97769 11.8898 3.06694 11.7084C3.18155 11.4756 5.93874 6 11.5 6C17.0613 6 19.8184 11.4756 19.9331 11.7085C20.0223 11.8899 20.0223 12.1103 19.9331 12.2916C19.8184 12.5244 17.0613 18 11.5 18ZM4.1564 11.9991C4.78832 13.0807 7.26939 16.8 11.5 16.8C15.744 16.8 18.2141 13.0837 18.8436 12.0009C18.2117 10.9192 15.7306 7.2 11.5 7.2C7.25598 7.2 4.78593 10.9163 4.1564 11.9991ZM11.5 15.6C9.74236 15.6 8.3125 13.9851 8.3125 12C8.3125 10.0149 9.74236 8.4 11.5 8.4C13.2576 8.4 14.6875 10.0149 14.6875 12C14.6875 13.9851 13.2576 15.6 11.5 15.6ZM11.5 9.6C10.3283 9.6 9.375 10.6767 9.375 12C9.375 13.3233 10.3283 14.4 11.5 14.4C12.6717 14.4 13.625 13.3233 13.625 12C13.625 10.6767 12.6717 9.6 11.5 9.6Z" fill="#1080D6"/>
</svg>
